<?xml version="1.0" encoding="UTF-8"?>
<!-- Created with Inkscape (http://www.inkscape.org/) -->
<svg width="512" height="512" version="1.1" viewBox="0 0 135.47 135.47" xml:space="preserve" xmlns="http://www.w3.org/2000/svg"><circle cx="66.976" cy="66.112" r="51.709" fill="none" stroke="#000" stroke-width="6"/><g><path d="m76.479 75.155 6.9697 6.2249" stroke="#000" stroke-width="2"/><path d="m5.0341 50.086 15.201-5.9555 114.5 18.693-9.5251 7.2546z"/><path d="m48.015 65.046-1.2237 15.802-10.109-0.95767-5.3204 2.3942 29.315 4.948 5.0544-2.2878-8.087-2.341-5.746-19.207z"/><path d="m85.657 71.59 16.413-7.2357" stroke="#000" stroke-width="2"/><path d="m72.117 58.182-4.7883 1.9684-2.8195 16.866-13.438 4.638 5.9578-0.70745 0.51211 1.6883 15.378-5.1423s14.334-1.5215 15.107-5.0519c0.94675-4.3291-15.908-14.259-15.908-14.259zm0.22628 3.4758 11.427 9.0752-8.916 2.6445s-2.5112-11.072-2.5112-11.72z"/></g><path d="m68.978 75.101-30.326-23.782" fill="#1a1a1a" stroke="#000" stroke-width="2"/><g stroke="#000"><path d="m74.298 74.197-7.9274 4.6287" stroke-width="2"/><ellipse cx="66.344" cy="79.225" rx="1.0375" ry="1.7557" stroke-width="2.0895"/><ellipse cx="84.832" cy="82.018" rx="1.2423" ry="1.9606" stroke-width="2.1587"/></g>
    <style>
        @media (prefers-color-scheme: dark) {
            path { fill: #fff; }
            g[stroke="#000"] { stroke: #fff; }
            path[stroke="#000"] { stroke: #fff; }
            circle { stroke: #fff }
            ellipse { stroke: #fff; fill: #fff; }
        }
    </style>
</svg>
